/* XPM */
static char *_c148ba488d54201ede49ff46616ce95cUC8X4zUSK3sfKEa[] = {
/* columns rows colors chars-per-pixel */
"64 64 256 2 ",
"   c #370D01",
".  c #3B1607",
"X  c #3E250B",
"o  c #471908",
"O  c #551D05",
"+  c #4B1E13",
"@  c #4A250A",
"#  c #58260A",
"$  c #4D2414",
"%  c #4B271A",
"&  c #542313",
"*  c #552B14",
"=  c #552A1A",
"-  c #5C2C1C",
";  c #5A2815",
":  c #5C331C",
">  c #583518",
",  c #58390D",
"<  c #65280A",
"1  c #652C18",
"2  c #65321D",
"3  c #6B341C",
"4  c #673819",
"5  c #72381C",
"6  c #68310B",
"7  c #582C22",
"8  c #5A3726",
"9  c #4C2C22",
"0  c #653421",
"q  c #633C23",
"w  c #6C3B25",
"e  c #6B3C2C",
"r  c #673828",
"t  c #733C24",
"y  c #733B2C",
"u  c #793B27",
"i  c #663C32",
"p  c #753D33",
"a  c #642D24",
"s  c #70431D",
"d  c #5A442F",
"f  c #6D422B",
"g  c #6A452A",
"h  c #74432C",
"j  c #7C442D",
"k  c #7C4B2D",
"l  c #774526",
"z  c #694636",
"x  c #744433",
"c  c #744B33",
"v  c #7B4B34",
"b  c #7A4737",
"n  c #7A5536",
"m  c #6E532E",
"M  c #5D4111",
"N  c #795845",
"B  c #6D5143",
"V  c #78634E",
"C  c #5C5044",
"Z  c #843E2E",
"A  c #86492A",
"S  c #834C34",
"D  c #8A4D33",
"F  c #854B39",
"G  c #845334",
"H  c #8C5335",
"J  c #8B533C",
"K  c #87573A",
"L  c #93553B",
"P  c #935B3C",
"I  c #9B5D3C",
"U  c #965935",
"Y  c #8D512D",
"T  c #97633C",
"R  c #896137",
"E  c #A1603C",
"W  c #A15C3B",
"Q  c #864E41",
"!  c #885744",
"~  c #945B43",
"^  c #9B5C42",
"/  c #975947",
"(  c #915E52",
")  c #8A6548",
"_  c #946344",
"`  c #99664A",
"'  c #876955",
"]  c #9A6953",
"[  c #9A7756",
"{  c #927551",
"}  c #A36445",
"|  c #A36B4C",
" . c #AB6C4B",
".. c #A56747",
"X. c #A9734C",
"o. c #AC6C53",
"O. c #A66C56",
"+. c #AB7354",
"@. c #AD755A",
"#. c #A77656",
"$. c #B37454",
"%. c #B37B5C",
"&. c #B87A58",
"*. c #B3704E",
"=. c #977B69",
"-. c #877566",
";. c #B97B64",
":. c #AB7665",
">. c #A15E44",
",. c #C87C59",
"<. c #C47C66",
"1. c #AB8257",
"2. c #B9855C",
"3. c #AF995B",
"4. c #9C826A",
"5. c #978A75",
"6. c #A6876B",
"7. c #BC8364",
"8. c #B98867",
"9. c #A38977",
"0. c #A89879",
"q. c #B6957A",
"w. c #BA916E",
"e. c #BAAA78",
"r. c #BCB179",
"t. c #B3A771",
"y. c #C5835D",
"u. c #D3845B",
"i. c #C38462",
"p. c #C38B6B",
"a. c #C78A68",
"s. c #D58C6A",
"d. c #C9936B",
"f. c #C98C73",
"g. c #CA9677",
"h. c #D89A78",
"j. c #D5966C",
"k. c #E39C78",
"l. c #E7986E",
"z. c #C3A978",
"x. c #DAA17C",
"c. c #C7B779",
"v. c #C5B16E",
"b. c #E4A27C",
"n. c #F0A679",
"m. c #D1C17D",
"M. c #A89986",
"N. c #B69C86",
"B. c #A89689",
"V. c #ACA886",
"C. c #B5A989",
"Z. c #BCB384",
"A. c #BDBA8C",
"S. c #B8B38A",
"D. c #B7A794",
"F. c #B6B292",
"G. c #BBB594",
"H. c #BDBA93",
"J. c #BEB99A",
"K. c #BBB699",
"L. c #AEA496",
"P. c #BCBBA4",
"I. c #BDBCAB",
"U. c #BAB5A5",
"Y. c #B4AFA4",
"T. c #9F9281",
"R. c #D79D81",
"E. c #C79B83",
"W. c #CBA78B",
"Q. c #D8A787",
"!. c #C2B483",
"~. c #C4BC8C",
"^. c #C7BA88",
"/. c #C5AD96",
"(. c #D7AE92",
"). c #C3BB94",
"_. c #C3BC9C",
"`. c #C8B997",
"'. c #DAB599",
"]. c #D6BC87",
"[. c #E6AA88",
"{. c #E7B48B",
"}. c #F4B58C",
"|. c #E5AE92",
" X c #E4B494",
".X c #E3B59A",
"XX c #E4BA9C",
"oX c #EBBC9C",
"OX c #EAB795",
"+X c #F3B997",
"@X c #F2AC8C",
"#X c #C3BDA3",
"$X c #C4BDAA",
"%X c #C8B9A6",
"&X c #D8BDA6",
"*X c #C9BAAE",
"=X c #E5BCA2",
"-X c #EABEA3",
";X c #E89E83",
":X c #BEC1AB",
">X c #CBC28A",
",X c #D3C587",
"<X c #CAC494",
"1X c #C5C39D",
"2X c #CBC39B",
"3X c #C8C597",
"4X c #D5C697",
"5X c #E9C39B",
"6X c #F7C39A",
"7X c #E2C58D",
"8X c #C6C1A3",
"9X c #CAC4A4",
"0X c #C4C2AC",
"qX c #CAC4AC",
"wX c #CEC9AC",
"eX c #CDCAA5",
"rX c #D2CCAC",
"tX c #D5C6A9",
"yX c #C6C4B2",
"uX c #CCC5B2",
"iX c #CCCAB4",
"pX c #CDCCBA",
"aX c #C8C6B8",
"sX c #D2CBB4",
"dX c #D3CDBA",
"fX c #D5C6B5",
"gX c #D5D2BC",
"hX c #D9D3BD",
"jX c #D5D2B5",
"kX c #D3D1B1",
"lX c #ECC3A4",
"zX c #EAC7AA",
"xX c #F5C7A6",
"cX c #F8D5AB",
"vX c #F4CCB3",
"bX c #E9D4B8",
"nX c #FDDABA",
"mX c #F8D5B7",
"MX c #E9CCB4",
"NX c #FFE3B8",
"BX c #CCCBC4",
"VX c #D9D5C7",
"CX c #D8D8D3",
"ZX c #D3CEC5",
"AX c #E5D8C7",
"SX c #FCDCC1",
"DX c #E2DACF",
"FX c #DDE0D9",
"GX c #FDE6C8",
"HX c #E6E4DA",
"JX c #FEEBD2",
"KX c #FFF1D5",
"LX c #E9E9E6",
"PX c #F9F3E7",
"IX c #F1EEE9",
"UX c #E3DFE0",
/* pixels */
"t.c.~.~.3X3X3X3XA.H.8XrXwXqXwXsXuX*XVXVXwXiX$XqXsXsXsXjXiXaXyXiXtXtXfXfXfX*XyXyX:XpXZXhXAXfXdXuXqX%XwXqXK.#X_.F.).).!.^./.].e.t.",
"e.e.^.4X3X~.3X3X1XJ.1X8XjXrXqXsXdXfXyX0XI.qXwX9X/.C.M.M.M.L.M.-.' ) ) ' 9./.*XyXI.$X0XdXAXuXVXuXqXdXsX$XqX8X_.).).).).^.^.^.e.w.",
"t.r.^.>X3X3X3X3X1XeXJ.J.8XjXsXsXiXpX0XI.pX8X4.N - 2 2 * & o     & 2 w 0 ; = N B.uX%X$XfX*XsXuXVXuXAXwX$XwX%X_.9X2X4X`.4X/.!.e.e.",
"e.Z.r.Z.>X3X1X2X1X1XkX8XqXwXhXiXpXiXY.%XM.d @ = l J L J p & o a y H P ^ ~ u ; & N /.%XqX$XiXuXfXVXhXwXsX0X_.9XeX9X2X`.).!.!.t.e.",
"A.A.Z.A.A.3X2XeX1X:XeXjXiXiXyXpXI.I.aXB.@ * 5 A L ^ } L A 1 ; 1 1 H ..} ^ L D j o 8 /.$X$X$XqXhXhXwXfXpX8X8XqXeX2X_.).Z.!.Z.C.e.",
"Z.~.3XA.A.)._.8XwXeX:X:XgXyXyXyXI.*XL.9 & 1 1 Z W ....T S 1 & 2 3 j _ $.&.$.L Z w + d $X$X%XfXhXfXsXjXuXyXsXqX8X#X8X2X/.!.Z.!.!.",
"r.S.A.3X2X).H.1X8XwXiXiXpXgX0XI.*X/.i & u Z Z A I $.X.| ` y o - t G ` %.7.,.*.^ F e . V *XK.sX*XuXdXdXsXsXsX9X8X1X_.).G.).!./.Z.",
"V.H.A.A._.tXeX#X:XwXgXgXyXyXaXI.%XB + p Z D Y I &.d.p.%.] F 0 = f S ] %.y.<.&.>.Q y B 9 9.fXU.qXdXdXiXgXgXuXqXqX9X_.).).2X`.<X`.",
"V.H.)._.`._.9XsX8X0XiXpXyX:XI.uX=.+ y F / / U } $.&.&.%.( ! x a e y Q @.i.a.;.$./ p p i 8 *X*X0XyXqXgXVXiXdXsXwX_.9X1X9X`.`.).Z.",
"V.S.).eX9X_.#XqXiXpX:XP.yXI.$XD.7 a F / F F P P ` X.@.` / Q p & 7 e b / ` _ D u p u p p 9 ' *XU.$XgXgXfXgXfXqXqXqXwX9X9X).).F.t.",
"0.S.F.8XrXwXqX0XwXpXiX0XU.D.$X-.% r F Q Q j J k s s h l t a - = $ 7 - h k G v G a a p a i 9 B.*XyXuXuXdXVXsXwXqXsXwX#X_.G.G.G.V.",
"F.F.C.F.%XqXjXjXgXyXpXpXU.*XY.8 - p b ( F b f 2 g n ) ` ) Q f = + > $ e c c h v Q y 7 7 7 9 C U.$XyXdXsXuXdXAXhXqX9X#X_._.).F.V.",
"F.J.H.:X%X_.qXpXgXgXiXyX%XfX4.% y y Q Q f r q ! ) n m m c g h h : i = q 8 * . o y Q 1 + 7 7 X =.fXyX%X$XhXAXVXwXwXwX9X#X_.F.F.C.",
"V.H.1X:XsX9XqX$X:XpX0XP.%X*XN 9 y p ] b = x ' : o * > 8 g v k h c K v b n c e 0 O y b + = $ + C %XqXuXVXhXdXwXhXdX9X#XJ.J.G.J.H.",
"V.J.J.J.9XsXgXiXyX0XU.K.%X*Xd i y Q ` = 8 ! + & 0 x P ] #.#.+.%.$.%.@.@.+.O.] / Q y b g + % 7 9 9.fXqXuXuXdXhXsXwXqX8X9X9X8X1XF.",
"V.J.8XeXqXiXjXhXpXpXqXU.U.D.8 b p O.Q = N % o h / O.;.7.p.p.p.a.s.a.f.f.p.f.p.;.@./ f c N i a 7 B dX%XyXdXdXsXfXwXwXsXwX9XG.G.S.",
"V.F.8XiXdXjXdXdXpXpXiXyX0XM.i Z Z :.a p x o 4 H @.7.p.g.h.h.x.x.k.R.h.R.h.h.h.j.p.p.] w 7 B Q 8 9 D.uX%X0XyXpXhXbXjX%XF.1X_.H.F.",
"0.F.K.P.iXdXgXZXfXaX:X:X0X4.y u Q ( - N 0 o l | i.f.R.Q.Q.Q.[.[.Q.|.@X|.Q.[.@Xh.h.7.7.#.e + i ! 9 V uX0XiXpXjXgX0X8X9X_.eX1XJ.F.",
"V.K.J.J.P.0XyXuXdXsX:X:XwX' x r ( b 9 N % = R 6.h.R.[.|..X.XoXoX+XOX.X.XoX X@Xb.k.h.i.O.! % . i B B %X%X0XiXiXsXsXrXrX9X8XH.F.V.",
"V.P.wXiXdXdXdXdXyX:XP.:X_.z Q r O.a 7 B $ d ] 8.g.R.|.|..XXX=XoX5XxX-X=X5X X{.{.k.Q.f.:.` :   9 i d N.qXiXpXdXdXsX9XqX_.8X_._.K.",
"F.#X9X%XwXpXhXVXAXZXiXjX0.i / p ] 7 q z % c #.8.h.k.[.{.OX7X5X5XzXzXtXzXzXlX6X}.}.OX[.;.( r . 9 8 i 5.fXI.0X0XsXsXrXrXrXwXeXP.F.",
"F._._.qXiXpXiXiXfXqX0XiX' e ( F ~ 1 z z $ n #.g.h.b.{.+X5XcXcXcXcXMXmXbXMXnXcXxXQ.#.+.8.[ g . 8 B 8 ' qX$XaXdXhXVXhXjXrX8XJ.V.V.",
"C.J._.qXjXVXVXbXuX0XiXqXz b Q p S 1 v b = ! #.f.Q.[.6XxXNXGXGXGXNXGXJXGXGXnXg.R n ) ` ` / f   9 N 8 B %X$X0XyXwXqX9XeX8X8X#XF.F.",
"T.F.K._.:X0XuXuXfX$X0XY.8 b Q y Z 1 ! v q ` %.p.T T _ { 6.`.cXGXKXKXJXJXGXg.' 4./.zXnX X@.B . 9 ( c z *X%X0XyXiXhXhXjXhXhXsX_.K.",
"0.F.8XwXiXiXgXrXhXjXpXD.i Q b p e e ! c h _ X.T T 2.d.w.#.w.Q.xXGXJXGXGX.Xw.9.V B m ) Q.Q.n . X ] c q %X0X#XiXdXwXfXqX8XJ.F.C.V.",
"F.K._.0XkXjXAXDXAXhXdXK.i B p 7 7 i ! h G _ ` b.cXnXzX/.W.E.x.5XMXmXGXlXh.q.=.d C N.g s d.K . X ' ! 8 K.$X$XqXwXuXrX8X8XJ.1XJ.C.",
"F.J._.8X0X0XqX$X*XyXqX#Xi a p a 7 b ! g n #.g.xX`.' d 9 C ' q.lXlXlXnX7Xg.R.Y.L.*X%X] | 2.G o . Q [ > N.rXqXsXiXjXhXsXkXkXeX8XF.",
"C.8X9X8XqXsXAXAXsXsXuX%XN a i % 8 B ! r G #.Q.8., d V C V AXq.zXlX.XnX5XR.mXGXAXAX%Xg.j.7.G . . ! ;.> 6.fX_.P.P.K._.J.J.1X1XH.V.",
"F._.8X8X0X0XwXqXyXyXfX*X( 7 7 7 i ! F & F +.i.#.n V 0./.&XAXGXnX5XOXNX7Xf.oXGXJXGXmX+Xh.&.G .   J 8.g ' bX8X0XwXsXsXwXwXeX2X_.S.",
"C.F.F.J.8X8XiXpXVXgXVXdX=.% 9 i Q ( h O A o.<.h.g.w.N.MXAXJXGXnX+X].NXNXh.Q.xXcXnXnXxXx.7.v   o J g.n n tX9X8X8X9XeXeXeXeX3X).S.",
"M.C.K.8XiXsXsXgXgXiX0X&X=.7 7 z ] ] 3 # u  .,.h.{.xXmXSXJXGXbXzXxX6XcXNXx.b.6X6X6X5X6XQ.%.j   o H 8.) g `.wX8XrXwXrX3X3X1XS.S.S.",
"S._.8X8X8X#X0X0X:XiXyXfXT.% p N ] ) 3 1 l ..a.k.@X+XmXnXSXSXbXvX6XxXcXNXh.l.6X6X6X}.[.j.O.w   o P 2.{ d C.:XC.9XkXkXrXrXeX3XA.V.",
"V.H._.J.J.%XqXjXgXjX%XfX' 7 Z O.` v a 1 1 ^ <.k.@X}.xXmXMXmXmXmXcXcXxXNXx.j.6X6X6X}.n.s.E 5   + ~ @.] M C.tXwX9X8X_.).2XeX4X3XA.",
"S.F.H._.9XrXuX0X0X#X%X/.8 y ( ;.t v b O O D <.s.b.@X+X-XmXbXmXGX5X].OXcX}.*.6XcX6X}.l.u.} 1   % D o.#.8 0.eX9X9XrXwX3X<X~.~.A.S.",
"S.H.1X)._.%X8X0XiX9XtX=.= v :./ 1 > N B O 5 $.s.h.k.@X+XxXnXJXnXOXQ.{.NX}.d.x.6X6X}.l.,.U &   & J ` { > 9.rXJ.8XeXeX2XrXeX3XA.A.",
"V.S.S./.`.9XqXwXrXsXD.q e ` o.a ; o ( ;.& 1 U &.s.l.[.+XxXnXGXcXQ.x.{.6X}.j.j.6X6X}.l.y.L O o 0 F P ) 8 0.rX8XrX9XH.1X<X<X>XA.A.",
"0.t.H.).2XtXeXeX8XfX) : F :./ 1 & o   7 X : j  .,.l.n.@XxXcXvXlX{.i.h.nXx.Y *.y.n.[.l. .F + + g K F n q C.*X_.9XrXeX3X~.Z.A.Z.Z.",
"t.Z.2X3X_.H.J.8XrX`.d h / ;.D 5 ; a %   @ @ 6 U *.s.k.@XxXxXlXQ.2.I ~ |.d.# < A Y  .y.O.j o - b J ! x 8 W.%X9XH.3X3XeX3X<X>XA.Z.",
"!.`.`.].3X3X1XeXkX0.* S O.;.S j a p i 9 > % O Z W ,.<.@X@Xp.X.X.X.} | f.[.a.*.*.i.Y A ~ a o 1 j b / e q /.&XeXeXH.A.A.<X<X>X^.Z.",
"~.^.~.~.<X1X1X3XrX6.: S o.f.S J y p B 7 $ 2 o Z Z *.<.<.X.E d.j.y.h.[.h.g.2.Y E }.$.u y & + 2 S S Q - 0 W.`.2XtXrX3X>X^.<X4X<Xr.",
">Xc.c.~.~.A.H.H.rXt.# A o.<.j J p Q B i o z & 3 l L $.>.Y k.}.*.U U  .a.f.f.&.,.h.$.y e o & t S j / w + ! &XtX4X<X<X4X>X^.^.Z.c.",
"r.r.r.r.Z.r.A.eXrXW.f S / ;.K j Z Q ( c + c 0 # j J / u L k.b.k.n.[.xXSXvXmX@Xj.i.^ x 7 o 2 b ^ S Q y a @ g 6.^.~.^.~.>X^.c.c.t.",
"^.r.r.r.Z.Z.A.3X`.tX) 2 F ] ~ w Q / ] b & e ! 2 0 j h t D &.i.j.;X+X@XR.p.h.j.d.+.D e & + 3 L %.F ( Q t 0 & . ) e.~.>X^.>Xc.e.c.",
"r.r.t.r.r.3X>X3X/.5Xq.1 y S ] v F / O.F 0 1 [ ~ O w h j j H  .,.a.<.$.o.` X.*. .I w 8 o o j I f.^ J O.J 3 2 w @ { c.4X,Xc.^.].c.",
"r.r.c.^.>X^.Z.^.4X&X:.# 2 w w J D L @.J D 3 ` %.L # ; x h G H _ | I } *.| %.2.T A q % . # H X.a.^ t / o./ 3 u 5 g z.,X,X>Xm.v.e.",
"m.c.>Xc.r.!.(.C.[ m * o ; e ; S J H ` L _ 5 } &.g.F o * f v k G ~ .. . .P @.2...S 4 = o u H E  .o.Z u o.<./ 3 j s z.4X,Xm.c.v.t.",
"m.,Xc.^.r.c.{ , @ . o = r ; o S J j j ` ..6 } &.a.h.Q & 8 q z R P %.X.I D ] $.U k > r o b  .I W >.>.5 Z $.o.H k s c.].c.m.v.v.m.",
">Xm.c.v.c.n @ : > 2 f n 4 * w ] H # t o...6 E ,.a.g.E.[ 7 @ : h n K ` U 5 P #.G 4 v * & A &.h. .L L L Z L o.j 5 G '.7Xm.m.m.v.m.",
",Xm.r.c.[ # G h q x ` f l v ~ K h # h ` A t I $.p.R.E.E.E.' 0 $ g h ` S 2 ! ~ 0 k ` # O L } X.G A W } ^ A J ; + w ) m { t.m.m.m.",
"m.t.t.m.m 4 ] G j ~ P j A _ l 3 S 2 F ~ 5 5 ..%.;.g.R.Q.Q.=XW.) * : b x F e 4 t 8.` 6 < D &.O.P 3 Z $.O.l 3 & o o @ @ , m 3.m.m.",
"v.t.t.1., j @.L l I P U o.^ A ~ @.H 5 l 5 j ` %.a.d.x.|. X(.=XzX6.g 7 ' W.) n q.R.~ 3 5 _ @.2.@.| l H 2.H 1 a a ; r k s M m v.7X",
"m.3.M X o - O.P I I U ..y.} o.%.s.a.A 3 1 A  .&.y.k.h.x.=X-X=XzXvX=XW.'.mXvX-X-Xg.] 5 4 +.8.] l 1 J A a.j u t 1 - S ~ K R Y d.}.",
"v.M . . * = h J T y...*.,.a.W $.y.a.X._ k 5 O.&.i.s.k.@X|..X-XvXMXSXvXmXvXvXvX.Xg.%.v , 4 k 1 4 t H Y i.>.< ; u b D %.y.u.R 1.m.",
"1.X > > c c 3 y | 2.b.2.| E Y Y s s l T #.3 | 7.s.d.h.[.[.XX-X=XzXvXMXmXvXzX-X Xf.@.P l > # # K ` H A  .k.} J | D F &.,.1.A R n.",
", > m m ] ` _ < ` %.7.+.l 5 1 3 4 > s v ] A | p.p.g.R.[.|.OXOXoX-XvXMXzXvXlXXXQ.f.8.] G s @ q ` p.X.T u.*.$.&.I 2 u Z < < # @ m ",
"M m P ` ` p.X.6 5 H s 6 # # k 5 2 @ > P ` | @.i.g.E.Q.Q.(.OXOXoX-X-X-X-X=XXX XQ.g.p.1.] n h = ` Q.{.X.j.u.W Y l # O 6 A 5 6 < , ",
"v ` #.f.d.2...T J k U R 6 , l | R s U 1.y.2.7.g.R.R.(.(.'.'..XXX=X.X.X.X.XOX[.g.h.g.8.8.] ) b z ) 3.T d.d.1.#.R 6 j A A I P G g ",
"! { ` ~ x.d.1.T T 2.1.R T Y k X.1.d.y.d.x.2.g. X.X.X=X-XXX=X'.'.XX'.Q.Q.|.|.Q.Q.Q.Q.|.g.N.:.=.N.d @ M R 2.x.x.) 4 G 7. .E 7.] T ",
"9.4.' ' N [ ] n [ 1.1.s 1.i.2.d.1.2.2.j.3.7.W.(.-X-XxXxX-X-X=X=X.X(.Q.Q.|.OX(.OXOXOX|.W.W.E.%X%X0.z 9 z R { { n , m #.2.2.8.1.1.",
"M.0.B.B.9.T.9.=.[ 1.[ n T { #.R X.2.8.6.w.!.q.W..X-XoXxXxXvXlX=X.X.XQ.|.+XoX+XxXoXXX(.=XE.D.&XBXaXI.5.V m V V -.' n [ w.8.2.3.#.",
"I.L.*XY.*XY.D.N./._./.D.K.9.4.9.:.[ 0.D.*X*XfXD.W.W. XoXoXxXlX5XXX X.XoX-X+X-XxXxX=X=XW.N.AXDXCXCXBXpX5.M.F.Y.V.5.V V V N { [ N.",
"pXU.aX*XI.*XY.*XpXdXaXU.DXuX$XqX%XD.dXZXdXdXsXCXVX&X/.(..XoXoX.X-X=X=X=XXXoXoX.X(.'.E.M.VXIXCXUXFXCXHX:XpXP.aXyXY.L.B.B.5./.C.D.",
"BXaXBX$XuXdXY.I.BXZXZX*XVXDX*XaXVXZXaXCXCXFXBXFXIXPXHXAX&X%X'.&X=X-X=X=XoXXX.X.X(.N./.GXPXHXIXLXUXIXCXCXLXBXCXBXBXBXY.Y.I.I.U.L.",
"CXCXBXpXyXdXY.BXCXCXCXaXZXHX*XZXZXHXaXHXHXCXFXCXHXIXPXPXPXJXMX&X(. X(.(.'.(.W.E.'.SXPXKXIXIXIXIXIXLXIXLXLXCXCXCXBXFXaXY.I.I.ZXY."
};